<svg width="68" height="66" viewBox="0 0 68 66" fill="none" xmlns="http://www.w3.org/2000/svg"><path d="M66.1812 59.6L60.2437 53.6625C59.175 52.5938 57.5125 52.3562 56.2062 52.95L54.6625 51.4062C56.5625 49.15 57.75 46.1812 57.75 43.0938C57.75 35.85 51.9312 30.0312 44.6875 30.0312C43.7375 30.0312 42.7875 30.15 41.9562 30.3875C37.6813 24.2125 30.7938 20.5312 23.3125 20.5312C10.8438 20.5312 0.75 30.625 0.75 43.0938C0.75 55.5625 10.8438 65.6562 23.3125 65.6562C30.7938 65.6562 37.6813 61.975 41.9562 55.8C42.9062 56.0375 43.7375 56.1562 44.6875 56.1562C47.8937 56.1562 50.7437 54.9688 53 53.0687L54.5438 54.6125C53.95 55.9188 54.1875 57.5812 55.2563 58.65L61.1938 64.5875C61.9063 65.3 62.8563 65.6562 63.6875 65.6562C64.6375 65.6562 65.4687 65.3 66.1812 64.5875C67.6062 63.2812 67.6062 61.025 66.1812 59.6ZM3.24375 44.2812H11.5562C11.675 46.775 11.9125 49.0312 12.2687 51.2875C10.0125 51.8813 7.875 52.5938 6.09375 53.425C4.43125 50.6938 3.3625 47.6062 3.24375 44.2812ZM6.2125 32.525C8.1125 33.3562 10.1313 34.0688 12.3875 34.6625C11.9125 36.9188 11.675 39.4125 11.5562 42.025H3.24375C3.3625 38.4625 4.43125 35.2562 6.2125 32.525ZM31.7437 41.9062H24.5V35.85C27.1125 35.7313 29.6062 35.4937 31.9812 35.1375C32.2187 36.2062 32.3375 37.275 32.4563 38.3438C32.1 39.4125 31.7437 40.6 31.7437 41.9062ZM24.5 33.475V23.1438C27.35 23.975 29.9625 27.5375 31.3875 32.8812C29.25 33.1187 26.875 33.3563 24.5 33.475ZM22.125 23.1438V33.475C19.75 33.3563 17.375 33.2375 15.2375 32.7625C16.6625 27.6562 19.275 23.8563 22.125 23.1438ZM22.125 35.85V41.9062H13.8125C13.9312 39.5312 14.1687 37.1562 14.6438 35.1375C17.0187 35.4937 19.5125 35.7313 22.125 35.85ZM13.8125 44.2812H22.125V49.9812C19.5125 50.1 17.0188 50.3375 14.525 50.8125C14.1688 48.675 13.9312 46.5375 13.8125 44.2812ZM22.125 52.3562V63.1625C19.1562 62.3312 16.5438 58.4125 15.1188 53.0687C17.375 52.5938 19.75 52.3562 22.125 52.3562ZM24.5 63.0437V52.2375C26.875 52.3563 29.25 52.5937 31.5063 52.95C30.0812 58.5312 27.4688 62.3312 24.5 63.0437ZM24.5 49.9812V44.2812H31.7437C31.8625 45.5875 32.1 46.775 32.575 47.8438C32.4562 48.7937 32.3375 49.7437 32.1 50.6938C29.6063 50.3375 27.1125 49.9812 24.5 49.9812ZM34.475 51.1687L34.5938 51.2875C34.475 51.2875 34.475 51.2875 34.475 51.1687C34.3563 51.1687 34.3563 51.1687 34.475 51.1687ZM34.475 35.0188C34.475 34.9 34.475 34.6625 34.3562 34.5437C34.5937 34.5437 34.7125 34.425 34.95 34.425C34.7125 34.6625 34.5938 34.7812 34.475 35.0188ZM39.1062 30.5062C37.4437 31.2188 35.6625 31.8125 33.7625 32.2875C32.8125 28.8437 31.3875 25.9937 29.6062 23.975C33.2875 25.1625 36.6125 27.4187 39.1062 30.5062ZM17.0187 23.975C15.2375 25.9937 13.8125 28.8437 12.8625 32.2875C10.9625 31.8125 9.18125 31.2188 7.6375 30.5062C10.0125 27.5375 13.2188 25.1625 17.0187 23.975ZM7.4 55.4437C9.0625 54.7313 10.8437 54.1375 12.8625 53.5437C13.8125 57.1062 15.2375 60.075 17.1375 62.2125C13.1 60.9062 9.775 58.5312 7.4 55.4437ZM29.6062 62.2125C31.3875 60.075 32.9313 57.1062 33.8812 53.5437C35.7812 54.0187 37.6812 54.6125 39.3438 55.4437C36.85 58.65 33.4062 61.025 29.6062 62.2125ZM34 43.0938C34 37.1562 38.75 32.4062 44.6875 32.4062C50.625 32.4062 55.375 37.1562 55.375 43.0938C55.375 49.0312 50.625 53.7812 44.6875 53.7812C38.75 53.7812 34 49.0312 34 43.0938ZM64.5187 62.925C64.0437 63.4 63.3312 63.4 62.8563 62.925L56.9188 56.9875C56.4437 56.5125 56.4437 55.8 56.9188 55.325C57.1562 55.0875 57.5125 54.9688 57.75 54.9688C58.1063 54.9688 58.3437 55.0875 58.5812 55.325L64.5187 61.2625C64.9938 61.7375 64.9938 62.45 64.5187 62.925Z" fill="black"></path><path d="M51.8125 41.9062C51.1 41.9062 50.625 42.3812 50.625 43.0938C50.625 46.4188 48.0125 49.0312 44.6875 49.0312C43.975 49.0312 43.5 49.5062 43.5 50.2188C43.5 50.9313 43.975 51.4062 44.6875 51.4062C49.3188 51.4062 53 47.725 53 43.0938C53 42.3812 52.525 41.9062 51.8125 41.9062ZM28.0625 7.46875H53C53.7125 7.46875 54.1875 6.99375 54.1875 6.28125C54.1875 5.56875 53.7125 5.09375 53 5.09375H28.0625C27.35 5.09375 26.875 5.56875 26.875 6.28125C26.875 6.99375 27.35 7.46875 28.0625 7.46875ZM60.125 7.46875H61.3125C62.025 7.46875 62.5 6.99375 62.5 6.28125C62.5 5.56875 62.025 5.09375 61.3125 5.09375H60.125C59.4125 5.09375 58.9375 5.56875 58.9375 6.28125C58.9375 6.99375 59.4125 7.46875 60.125 7.46875ZM56.5625 7.46875C56.9188 7.46875 57.1562 7.35 57.3938 7.1125C57.6313 6.875 57.75 6.6375 57.75 6.28125C57.75 5.925 57.6313 5.6875 57.3938 5.45C56.9188 4.975 56.2062 4.975 55.7312 5.45C55.4937 5.6875 55.375 5.925 55.375 6.28125C55.375 6.6375 55.4937 6.875 55.7312 7.1125C55.9688 7.35 56.2062 7.46875 56.5625 7.46875Z" fill="black"></path><path d="M12.625 19.3438C13.3375 19.3438 13.8125 18.8687 13.8125 18.1562V9.84375C13.8125 7.70625 15.5938 7.46875 16.1875 7.46875H22.2438C22.8375 10.2 25.2125 12.2188 28.0625 12.2188H36.375V18.1562C36.375 18.6313 36.6125 19.1062 37.0875 19.225C37.2062 19.3438 37.4438 19.3438 37.5625 19.3438C37.9188 19.3438 38.1562 19.225 38.3938 18.9875L45.1625 12.2188H57.75V18.1562C57.75 20.2938 55.9688 20.5312 55.375 20.5312H48.25C47.5375 20.5312 47.0625 21.0063 47.0625 21.7188C47.0625 22.4312 47.5375 22.9062 48.25 22.9062H55.375C57.275 22.9062 60.125 21.6 60.125 18.1562V12.2188H61.3125C64.6375 12.2188 67.25 9.60625 67.25 6.28125C67.25 2.95625 64.6375 0.34375 61.3125 0.34375H28.0625C25.2125 0.34375 22.8375 2.3625 22.2438 5.09375H16.1875C14.2875 5.09375 11.4375 6.4 11.4375 9.84375V18.1562C11.4375 18.8687 11.9125 19.3438 12.625 19.3438ZM28.0625 2.71875H61.3125C63.3312 2.71875 64.875 4.2625 64.875 6.28125C64.875 8.3 63.3312 9.84375 61.3125 9.84375H44.6875C44.3312 9.84375 44.0938 9.9625 43.8563 10.2L38.75 15.3063V11.0312C38.75 10.3188 38.275 9.84375 37.5625 9.84375H28.0625C26.0437 9.84375 24.5 8.3 24.5 6.28125C24.5 4.2625 26.0437 2.71875 28.0625 2.71875Z" fill="black"></path></svg>