<svg width="76" height="76" viewBox="0 0 76 76" fill="none" xmlns="http://www.w3.org/2000/svg"><g clip-path="url(#clip0_53_504)"><path d="M38 0C17.0224 0 0 17.0224 0 38C0 58.9776 17.0224 76 38 76C58.9776 76 76 58.9776 76 38C76 17.0224 58.9776 0 38 0ZM38 1.58333C58.121 1.58333 74.4167 17.8774 74.4167 38C74.4167 58.1226 58.121 74.4167 38 74.4167C17.879 74.4167 1.58333 58.1226 1.58333 38C1.58333 17.8774 17.879 1.58333 38 1.58333ZM16.625 17.4167C16.415 17.4167 16.2137 17.5001 16.0652 17.6485C15.9167 17.797 15.8333 17.9984 15.8333 18.2083V53.0417C15.8333 53.2516 15.9167 53.453 16.0652 53.6015C16.2137 53.7499 16.415 53.8333 16.625 53.8333H23.3542V52.25H17.4167V25.3333H55.4167V41.5403C55.4325 41.6163 55.4705 41.6828 55.48 41.7604C55.9186 41.401 56.4617 41.2221 57 41.2094V18.2083C57 17.9984 56.9166 17.797 56.7681 17.6485C56.6197 17.5001 56.4183 17.4167 56.2083 17.4167H16.625ZM17.4167 19H55.4167V23.75H17.4167V19ZM19.7917 20.5833C19.5817 20.5833 19.3803 20.6667 19.2319 20.8152C19.0834 20.9637 19 21.165 19 21.375C19 21.585 19.0834 21.7863 19.2319 21.9348C19.3803 22.0833 19.5817 22.1667 19.7917 22.1667C20.0016 22.1667 20.203 22.0833 20.3515 21.9348C20.4999 21.7863 20.5833 21.585 20.5833 21.375C20.5833 21.165 20.4999 20.9637 20.3515 20.8152C20.203 20.6667 20.0016 20.5833 19.7917 20.5833ZM22.9583 20.5833C22.7484 20.5833 22.547 20.6667 22.3985 20.8152C22.2501 20.9637 22.1667 21.165 22.1667 21.375C22.1667 21.585 22.2501 21.7863 22.3985 21.9348C22.547 22.0833 22.7484 22.1667 22.9583 22.1667C23.1683 22.1667 23.3697 22.0833 23.5181 21.9348C23.6666 21.7863 23.75 21.585 23.75 21.375C23.75 21.165 23.6666 20.9637 23.5181 20.8152C23.3697 20.6667 23.1683 20.5833 22.9583 20.5833ZM26.125 20.5833C25.915 20.5833 25.7137 20.6667 25.5652 20.8152C25.4167 20.9637 25.3333 21.165 25.3333 21.375C25.3333 21.585 25.4167 21.7863 25.5652 21.9348C25.7137 22.0833 25.915 22.1667 26.125 22.1667C26.335 22.1667 26.5363 22.0833 26.6848 21.9348C26.8333 21.7863 26.9167 21.585 26.9167 21.375C26.9167 21.165 26.8333 20.9637 26.6848 20.8152C26.5363 20.6667 26.335 20.5833 26.125 20.5833ZM40.4067 28.5C40.3819 28.4988 40.357 28.4988 40.3322 28.5C40.2037 28.5071 40.0789 28.5454 39.9686 28.6116C39.8582 28.6778 39.7656 28.77 39.6989 28.88L31.7933 41.5308C31.7343 41.619 31.6935 41.7182 31.6735 41.8224C31.6536 41.9266 31.6547 42.0338 31.677 42.1376C31.6993 42.2413 31.7422 42.3396 31.8032 42.4264C31.8642 42.5133 31.942 42.587 32.032 42.6431C32.1221 42.6993 32.2225 42.7368 32.3273 42.7534C32.4322 42.77 32.5392 42.7653 32.6422 42.7397C32.7452 42.7141 32.842 42.668 32.9268 42.6042C33.0117 42.5404 33.0828 42.4602 33.136 42.3684L41.04 29.7208C41.1162 29.6034 41.16 29.468 41.1668 29.3283C41.1737 29.1886 41.1434 29.0495 41.079 28.9253C41.0147 28.8011 40.9185 28.6961 40.8004 28.6211C40.6823 28.5462 40.5465 28.5054 40.4067 28.5ZM29.2663 30.0802V30.0833C29.0609 30.09 28.8662 30.1763 28.7233 30.324L24.0318 35.0186C23.9683 35.073 23.9138 35.1371 23.8703 35.2086C23.8591 35.2256 23.8485 35.243 23.8387 35.2608C23.8381 35.2608 23.8392 35.2608 23.8387 35.2608C23.8354 35.2677 23.8307 35.2745 23.8276 35.2814C23.8209 35.2939 23.8146 35.3066 23.8086 35.3194C23.8029 35.3335 23.7976 35.3478 23.7928 35.3622C23.7888 35.3732 23.7851 35.3843 23.7817 35.3954C23.7782 35.407 23.7751 35.4186 23.7722 35.4303C23.7698 35.4408 23.7677 35.4513 23.7658 35.4619C23.7647 35.4698 23.7636 35.4777 23.7627 35.4857C23.7371 35.6257 23.7498 35.7701 23.7994 35.9036C23.849 36.0371 23.9337 36.1547 24.0445 36.2441L28.7233 40.926C28.7963 41.0016 28.8836 41.0619 28.9802 41.1034C29.0768 41.1449 29.1807 41.1667 29.2858 41.1677C29.3909 41.1686 29.4952 41.1485 29.5925 41.1087C29.6898 41.0689 29.7781 41.0101 29.8525 40.9358C29.9268 40.8615 29.9856 40.7731 30.0254 40.6758C30.0652 40.5785 30.0852 40.4743 30.0843 40.3691C30.0834 40.264 30.0616 40.1601 30.0201 40.0636C29.9786 39.967 29.9183 39.8796 29.8427 39.8066L25.6611 35.6218L29.8411 31.4418C29.9564 31.3308 30.0354 31.1875 30.0676 31.0307C30.0998 30.8739 30.0837 30.711 30.0215 30.5636C29.9592 30.4161 29.8537 30.291 29.7189 30.2047C29.5841 30.1184 29.4263 30.075 29.2663 30.0802ZM43.5417 30.0833C43.3837 30.083 43.2293 30.1299 43.0982 30.2181C42.9671 30.3063 42.8654 30.4316 42.8062 30.578C42.7469 30.7245 42.7329 30.8853 42.7657 31.0398C42.7986 31.1943 42.8769 31.3354 42.9907 31.445L47.1722 35.625L42.9923 39.8097C42.9137 39.882 42.8505 39.9693 42.8066 40.0666C42.7626 40.1638 42.7388 40.269 42.7365 40.3757C42.7342 40.4824 42.7535 40.5884 42.7933 40.6875C42.833 40.7865 42.8924 40.8765 42.9678 40.952C43.0432 41.0275 43.1331 41.087 43.2321 41.1269C43.3311 41.1668 43.4371 41.1863 43.5438 41.1841C43.6505 41.182 43.7557 41.1583 43.853 41.1145C43.9503 41.0707 44.0378 41.0076 44.1101 40.9292L48.7983 36.2378C48.8839 36.1667 48.9535 36.0784 49.0026 35.9786C49.0517 35.8788 49.0793 35.7698 49.0835 35.6586C49.0877 35.5475 49.0684 35.4367 49.0269 35.3335C48.9854 35.2304 48.9226 35.1371 48.8427 35.0597H48.8395L44.1101 30.3272C44.0366 30.2505 43.9483 30.1893 43.8507 30.1474C43.753 30.1056 43.6479 30.0837 43.5417 30.0833ZM49.7293 41.1667C49.5194 41.1667 49.318 41.2501 49.1695 41.3985C49.0211 41.547 48.9377 41.7484 48.9377 41.9583V43.3754C48.4468 43.5274 47.975 43.719 47.519 43.9565L46.5215 42.9638C46.3731 42.8158 46.1721 42.7327 45.9626 42.7327C45.753 42.7327 45.5521 42.8158 45.4037 42.9638L42.9606 45.4021C42.8869 45.4756 42.8284 45.563 42.7885 45.6592C42.7485 45.7553 42.728 45.8585 42.728 45.9626C42.728 46.0667 42.7485 46.1698 42.7885 46.266C42.8284 46.3622 42.8869 46.4495 42.9606 46.5231L43.9581 47.5206C43.7206 47.9782 43.5211 48.45 43.3691 48.9408H41.9583C41.7484 48.9408 41.547 49.0242 41.3985 49.1727C41.2501 49.3212 41.1667 49.5225 41.1667 49.7325V53.1873C41.1667 53.3973 41.2501 53.5987 41.3985 53.7471C41.547 53.8956 41.7484 53.979 41.9583 53.979H43.3722C43.5243 54.4698 43.7174 54.9448 43.9565 55.4008L42.959 56.3983C42.8111 56.5467 42.728 56.7477 42.728 56.9573C42.728 57.1668 42.8111 57.3678 42.959 57.5162L45.4037 59.9561C45.5521 60.1045 45.7535 60.1879 45.9634 60.1879C46.1733 60.1879 46.3746 60.1045 46.5231 59.9561L47.5206 58.9602C47.9766 59.1977 48.4484 59.3924 48.9377 59.546V60.9583C48.9377 61.1683 49.0211 61.3697 49.1695 61.5181C49.318 61.6666 49.5194 61.75 49.7293 61.75H53.1873C53.3973 61.75 53.5987 61.6666 53.7471 61.5181C53.8956 61.3697 53.979 61.1683 53.979 60.9583V59.5444C54.4698 59.3924 54.9417 59.2008 55.3977 58.9633L56.3952 59.9561C56.5436 60.104 56.7446 60.1871 56.9541 60.1871C57.1636 60.1871 57.3646 60.104 57.513 59.9561L59.9561 57.5177C60.0298 57.4442 60.0883 57.3569 60.1282 57.2607C60.1681 57.1645 60.1887 57.0614 60.1887 56.9573C60.1887 56.8531 60.1681 56.75 60.1282 56.6538C60.0883 56.5577 60.0298 56.4703 59.9561 56.3968L58.9586 55.3993C59.1961 54.9417 59.3956 54.4698 59.5476 53.979H60.9583C61.1683 53.979 61.3697 53.8956 61.5181 53.7471C61.6666 53.5987 61.75 53.3973 61.75 53.1873V49.7325C61.75 49.5225 61.6666 49.3212 61.5181 49.1727C61.3697 49.0242 61.1683 48.9408 60.9583 48.9408H59.5444C59.3929 48.4503 59.1973 47.9744 58.9602 47.519L59.9577 46.5215C60.1056 46.3731 60.1887 46.1721 60.1887 45.9626C60.1887 45.753 60.1056 45.5521 59.9577 45.4037L57.513 42.9638C57.3645 42.8153 57.1632 42.732 56.9533 42.732C56.7434 42.732 56.542 42.8153 56.3936 42.9638L55.3961 43.9597C54.9423 43.7221 54.468 43.5261 53.979 43.3738V41.9583C53.979 41.7484 53.8956 41.547 53.7471 41.3985C53.5987 41.2501 53.3973 41.1667 53.1873 41.1667H49.7293ZM50.521 42.75H52.3957V43.8884C52.3954 44.0677 52.4561 44.2419 52.5677 44.3822C52.6793 44.5226 52.8352 44.6209 53.01 44.6611C53.7763 44.8353 54.5047 45.1377 55.1697 45.5541C55.3215 45.6492 55.5011 45.6901 55.6791 45.6699C55.8571 45.6498 56.023 45.5699 56.1498 45.4433L56.9541 44.6421L58.2778 45.9626L57.4766 46.7638C57.3507 46.8903 57.2713 47.0556 57.2511 47.2329C57.231 47.4102 57.2714 47.5892 57.3657 47.7407C57.7806 48.4073 58.0798 49.1403 58.2524 49.9067C58.292 50.082 58.39 50.2387 58.5304 50.3509C58.6709 50.4632 58.8453 50.5243 59.0251 50.5242H60.1667V52.3957H59.0282C58.8489 52.3954 58.6748 52.4561 58.5344 52.5677C58.3941 52.6793 58.2958 52.8352 58.2556 53.01C58.0814 53.7763 57.7806 54.5078 57.3626 55.1728C57.2674 55.3246 57.2266 55.5042 57.2467 55.6822C57.2669 55.8603 57.3468 56.0262 57.4734 56.1529L58.2778 56.9573L56.9541 58.2778L56.1529 57.4798C56.0264 57.3539 55.8611 57.2744 55.6837 57.2543C55.5064 57.2342 55.3275 57.2746 55.176 57.3689C54.5094 57.7838 53.7763 58.083 53.01 58.2556C52.8358 58.2956 52.6802 58.3935 52.5686 58.5332C52.4571 58.6729 52.3961 58.8463 52.3957 59.0251V60.1667H50.521V59.0282C50.5205 58.8495 50.4596 58.6761 50.348 58.5364C50.2365 58.3967 50.0809 58.2988 49.9067 58.2587C49.1415 58.0843 48.4114 57.7819 47.747 57.3642C47.5952 57.269 47.4156 57.2282 47.2376 57.2483C47.0596 57.2684 46.8936 57.3484 46.7669 57.475L45.9626 58.2778L44.6389 56.9573L45.4401 56.1561C45.5671 56.0293 45.6473 55.863 45.6674 55.6847C45.6875 55.5063 45.6465 55.3264 45.5509 55.1744C45.1359 54.509 44.8361 53.7783 44.6642 53.0132C44.6247 52.8378 44.5266 52.6811 44.3862 52.5689C44.2458 52.4567 44.0714 52.3956 43.8916 52.3957H42.75V50.5242H43.8884C44.068 50.5243 44.2422 50.4635 44.3826 50.3516C44.523 50.2396 44.6212 50.0833 44.6611 49.9083C44.8353 49.1435 45.1377 48.412 45.5541 47.747C45.6492 47.5952 45.6901 47.4156 45.6699 47.2376C45.6498 47.0596 45.5699 46.8936 45.4433 46.7669L44.6389 45.9626L45.9626 44.6421L46.7638 45.4401C46.8903 45.566 47.0556 45.6454 47.2329 45.6655C47.4102 45.6857 47.5892 45.6453 47.7407 45.5509C48.4073 45.1361 49.1403 44.8337 49.9067 44.6611C50.0804 44.6212 50.2355 44.5238 50.347 44.3847C50.4585 44.2456 50.5198 44.073 50.521 43.8947V42.75ZM31.0729 45.4892C30.863 45.4892 30.6616 45.5726 30.5131 45.721C30.3647 45.8695 30.2812 46.0709 30.2812 46.2808V47.0915C30.0533 47.1707 29.83 47.2593 29.6131 47.3638L29.0415 46.7938C28.893 46.6454 28.6917 46.562 28.4818 46.562C28.2719 46.562 28.0705 46.6454 27.9221 46.7938L26.2438 48.4738C26.0953 48.6222 26.012 48.8235 26.012 49.0335C26.012 49.2434 26.0953 49.4447 26.2438 49.5932L26.8137 50.1663C26.7083 50.3829 26.6158 50.6054 26.5367 50.8329H25.7292C25.5192 50.8329 25.3178 50.9163 25.1694 51.0648C25.0209 51.2133 24.9375 51.4146 24.9375 51.6246V53.9996C24.9375 54.2095 25.0209 54.4109 25.1694 54.5594C25.3178 54.7078 25.5192 54.7913 25.7292 54.7913H26.5398C26.619 55.0208 26.7061 55.2425 26.8122 55.4594L26.2422 56.0326C26.0938 56.181 26.0104 56.3824 26.0104 56.5923C26.0104 56.8022 26.0938 57.0035 26.2422 57.152L27.9205 58.8303C27.994 58.9041 28.0814 58.9626 28.1776 59.0025C28.2738 59.0424 28.3769 59.0629 28.481 59.0629C28.5851 59.0629 28.6882 59.0424 28.7844 59.0025C28.8806 58.9626 28.968 58.9041 29.0415 58.8303L29.6131 58.2587C29.8316 58.3648 30.0533 58.4551 30.2812 58.5343V59.3433C30.2812 59.5533 30.3647 59.7547 30.5131 59.9031C30.6616 60.0516 30.863 60.135 31.0729 60.135H33.4479C33.6579 60.135 33.8592 60.0516 34.0077 59.9031C34.1562 59.7547 34.2396 59.5533 34.2396 59.3433V58.5343C34.4674 58.4554 34.6905 58.3634 34.9078 58.2587L35.4793 58.8303C35.6278 58.9787 35.8291 59.0621 36.039 59.0621C36.249 59.0621 36.4503 58.9787 36.5988 58.8303L38.2771 57.152C38.3513 57.0784 38.4102 56.9908 38.4504 56.8944C38.4906 56.7979 38.5113 56.6944 38.5113 56.5899C38.5113 56.4854 38.4906 56.3819 38.4504 56.2855C38.4102 56.189 38.3513 56.1014 38.2771 56.0278L37.7087 55.4594C37.8148 55.2425 37.905 55.0208 37.9842 54.7913H38.7917C39.0016 54.7913 39.203 54.7078 39.3515 54.5594C39.4999 54.4109 39.5833 54.2095 39.5833 53.9996V51.6246C39.5833 51.4146 39.4999 51.2133 39.3515 51.0648C39.203 50.9163 39.0016 50.8329 38.7917 50.8329H37.981C37.9024 50.6055 37.8104 50.3829 37.7055 50.1663L38.2787 49.5932C38.4271 49.4447 38.5105 49.2434 38.5105 49.0335C38.5105 48.8235 38.4271 48.6222 38.2787 48.4738L36.6003 46.7954C36.5268 46.7217 36.4394 46.6632 36.3433 46.6233C36.2471 46.5834 36.144 46.5628 36.0398 46.5628C35.9357 46.5628 35.8326 46.5834 35.7364 46.6233C35.6402 46.6632 35.5529 46.7217 35.4793 46.7954L34.9078 47.367C34.6908 47.2608 34.4677 47.1677 34.2396 47.0883V46.2808C34.2396 46.0709 34.1562 45.8695 34.0077 45.721C33.8592 45.5726 33.6579 45.4892 33.4479 45.4892H31.0729ZM31.8646 47.0725H32.6562V47.6077C32.6564 47.7869 32.7175 47.9608 32.8294 48.1009C32.9412 48.241 33.0974 48.339 33.2722 48.3787C33.7709 48.4928 34.2491 48.6907 34.6813 48.963C34.8333 49.0586 35.0132 49.0996 35.1916 49.0795C35.3699 49.0594 35.5362 48.9792 35.663 48.8522L36.0398 48.4738L36.5988 49.0343L36.2219 49.4079C36.0949 49.5347 36.0147 49.701 35.9946 49.8793C35.9745 50.0577 36.0155 50.2376 36.1111 50.3896C36.3802 50.8234 36.5798 51.2984 36.6922 51.7988C36.7316 51.9736 36.8292 52.1299 36.969 52.242C37.1087 52.3542 37.2824 52.4156 37.4617 52.4163H38V53.2079H37.4648C37.2851 53.2078 37.1106 53.2689 36.9702 53.3811C36.8298 53.4934 36.7317 53.6501 36.6922 53.8254C36.5789 54.3234 36.3825 54.7988 36.1111 55.2314C36.0155 55.3834 35.9745 55.5633 35.9946 55.7417C36.0147 55.92 36.0949 56.0863 36.2219 56.2131L36.5988 56.5931L36.0398 57.1472L35.6646 56.7736C35.5379 56.6469 35.3719 56.567 35.1939 56.5469C35.0159 56.5268 34.8363 56.5676 34.6845 56.6628C34.2506 56.9332 33.7742 57.1286 33.2753 57.2407C33.0994 57.28 32.9422 57.3781 32.8296 57.5189C32.717 57.6597 32.6559 57.8347 32.6562 58.0149V58.5532H31.8646V58.0181C31.8651 57.8383 31.8044 57.6636 31.6925 57.5229C31.5805 57.3822 31.424 57.2838 31.2487 57.2438C30.7497 57.1305 30.2733 56.9341 29.8395 56.6628C29.6879 56.5668 29.5082 56.5252 29.3298 56.5448C29.1515 56.5643 28.985 56.6439 28.8578 56.7704L28.481 57.1488L27.9221 56.5883L28.2989 56.2115C28.4248 56.085 28.5042 55.9197 28.5244 55.7423C28.5445 55.565 28.5041 55.3861 28.4098 55.2346C28.1383 54.8008 27.9418 54.3245 27.8287 53.8254C27.7896 53.6503 27.6921 53.4937 27.5523 53.3812C27.4125 53.2687 27.2386 53.207 27.0592 53.2063H26.5208V52.4147H27.056C27.2358 52.4148 27.4102 52.3537 27.5506 52.2414C27.6911 52.1292 27.7891 51.9725 27.8287 51.7972C27.9427 51.3 28.139 50.8218 28.4098 50.388C28.5049 50.2362 28.5457 50.0566 28.5256 49.8786C28.5055 49.7006 28.4256 49.5346 28.2989 49.4079L27.9221 49.0311L28.481 48.4706L28.8563 48.8458C28.983 48.9725 29.1489 49.0524 29.3269 49.0725C29.5049 49.0927 29.6845 49.0518 29.8363 48.9567C30.2702 48.6859 30.7467 48.4912 31.2455 48.3787C31.4209 48.3396 31.5777 48.2419 31.6902 48.1018C31.8028 47.9616 31.8642 47.7874 31.8646 47.6077V47.0725ZM51.4583 47.5032C50.4104 47.5073 49.4064 47.9253 48.6651 48.666C47.9237 49.4068 47.505 50.4104 47.5 51.4583C47.5042 52.5069 47.9225 53.5113 48.664 54.2527C49.4054 54.9941 50.4098 55.4125 51.4583 55.4167C52.5069 55.4125 53.5113 54.9941 54.2527 54.2527C54.9941 53.5113 55.4125 52.5069 55.4167 51.4583C55.4117 50.4104 54.9929 49.4068 54.2516 48.666C53.5102 47.9253 52.5063 47.5073 51.4583 47.5032ZM51.4583 49.0865C52.7662 49.0865 53.8333 50.1505 53.8333 51.4583C53.8333 52.7662 52.7662 53.8333 51.4583 53.8333C50.1505 53.8333 49.0833 52.7662 49.0833 51.4583C49.0833 50.1505 50.1505 49.0865 51.4583 49.0865ZM32.2604 50.2059C30.8307 50.2059 29.6543 51.3823 29.6543 52.8121C29.6543 54.2434 30.8307 55.4167 32.2604 55.4167C33.6902 55.4167 34.8666 54.2418 34.8666 52.8121C34.8666 51.3823 33.6902 50.2059 32.2604 50.2059ZM32.2604 51.7892C32.5315 51.7892 32.7914 51.8969 32.9831 52.0886C33.1748 52.2803 33.2825 52.5402 33.2825 52.8113C33.2825 53.0824 33.1748 53.3423 32.9831 53.534C32.7914 53.7257 32.5315 53.8333 32.2604 53.8333C31.9894 53.8333 31.7294 53.7257 31.5377 53.534C31.3461 53.3423 31.2384 53.0824 31.2384 52.8113C31.2384 52.5402 31.3461 52.2803 31.5377 52.0886C31.7294 51.8969 31.9894 51.7892 32.2604 51.7892Z" fill="black"></path></g><defs><clipPath id="clip0_53_504"><rect width="76" height="76" fill="black"></rect></clipPath></defs></svg>