<svg width="76" height="76" viewBox="0 0 76 76" fill="none" xmlns="http://www.w3.org/2000/svg"><path d="M35.031 52.731C34.3863 52.7306 33.7681 52.4743 33.3122 52.0184C32.8563 51.5625 32.6 50.9443 32.5996 50.2996V39.0762C32.5987 38.6435 32.7132 38.2185 32.9314 37.8449C33.1496 37.4713 33.4636 37.1626 33.8408 36.9509C34.2181 36.7391 34.6451 36.6318 35.0777 36.6401C35.5102 36.6484 35.9328 36.772 36.3016 36.9981L45.4528 42.6105C45.8074 42.8279 46.1004 43.1326 46.3036 43.4955C46.5068 43.8585 46.6135 44.2675 46.6135 44.6834C46.6135 45.0994 46.5068 45.5084 46.3036 45.8713C46.1004 46.2342 45.8074 46.539 45.4528 46.7564L36.3016 52.3673C35.9199 52.6037 35.4801 52.7296 35.031 52.731ZM35.031 39.0747V50.3055L44.1822 44.6871L35.031 39.0747Z" fill="black"></path><path d="M37.9999 61.7099C34.6331 61.7099 31.3419 60.7116 28.5425 58.8411C25.7431 56.9706 23.5613 54.312 22.2728 51.2015C20.9844 48.091 20.6473 44.6682 21.3041 41.3661C21.961 38.064 23.5822 35.0309 25.9629 32.6502C28.3436 30.2695 31.3768 28.6482 34.6789 27.9914C37.981 27.3346 41.4037 27.6717 44.5142 28.9601C47.6247 30.2485 50.2833 32.4304 52.1538 35.2298C54.0243 38.0291 55.0227 41.3203 55.0227 44.6871C55.0176 49.2003 53.2225 53.5271 50.0312 56.7184C46.8399 59.9097 42.513 61.7048 37.9999 61.7099ZM37.9999 30.0928C35.1138 30.0925 32.2925 30.948 29.8928 32.5512C27.493 34.1544 25.6225 36.4333 24.518 39.0996C23.4134 41.7659 23.1243 44.6998 23.6873 47.5304C24.2502 50.361 25.64 52.9611 27.6807 55.0018C29.7214 57.0426 32.3215 58.4323 35.1521 58.9953C37.9827 59.5582 40.9167 59.2691 43.583 58.1646C46.2493 57.06 48.5281 55.1896 50.1313 52.7898C51.7345 50.39 52.5901 47.5687 52.5898 44.6827C52.5843 40.8153 51.0452 37.1079 48.3102 34.3737C45.5751 31.6394 41.8673 30.1015 37.9999 30.0972V30.0928Z" fill="black"></path><path d="M70.8283 69.3085H5.17143C3.88195 69.3074 2.64561 68.7947 1.73367 67.883C0.82174 66.9714 0.308701 65.7352 0.307129 64.4457V11.5545C0.308701 10.265 0.82174 9.0288 1.73367 8.11715C2.64561 7.20549 3.88195 6.69283 5.17143 6.69165H70.8283C72.1178 6.69283 73.3541 7.20549 74.2661 8.11715C75.178 9.0288 75.691 10.265 75.6926 11.5545V64.4457C75.691 65.7352 75.178 66.9714 74.2661 67.883C73.3541 68.7947 72.1178 69.3074 70.8283 69.3085ZM5.17143 9.12306C4.52656 9.12345 3.9082 9.37969 3.45207 9.83554C2.99594 10.2914 2.73932 10.9096 2.73854 11.5545V64.4457C2.73932 65.0906 2.99594 65.7088 3.45207 66.1646C3.9082 66.6205 4.52656 66.8767 5.17143 66.8771H70.8283C71.4732 66.8767 72.0915 66.6205 72.5477 66.1646C73.0038 65.7088 73.2604 65.0906 73.2612 64.4457V11.5545C73.2604 10.9096 73.0038 10.2914 72.5477 9.83554C72.0915 9.37969 71.4732 9.12345 70.8283 9.12306H5.17143Z" fill="black"></path><path d="M68.1475 22.4972H1.52283C1.20041 22.4972 0.891189 22.3691 0.6632 22.1411C0.435212 21.9131 0.307129 21.6039 0.307129 21.2815C0.307129 20.959 0.435212 20.6498 0.6632 20.4218C0.891189 20.1939 1.20041 20.0658 1.52283 20.0658H68.1475C68.4699 20.0658 68.7792 20.1939 69.0071 20.4218C69.2351 20.6498 69.3632 20.959 69.3632 21.2815C69.3632 21.6039 69.2351 21.9131 69.0071 22.1411C68.7792 22.3691 68.4699 22.4972 68.1475 22.4972ZM9.6483 15.8101H7.98283C7.66041 15.8101 7.35119 15.682 7.1232 15.454C6.89521 15.226 6.76713 14.9168 6.76713 14.5944C6.76713 14.2719 6.89521 13.9627 7.1232 13.7347C7.35119 13.5067 7.66041 13.3787 7.98283 13.3787H9.6483C9.97073 13.3787 10.2799 13.5067 10.5079 13.7347C10.7359 13.9627 10.864 14.2719 10.864 14.5944C10.864 14.9168 10.7359 15.226 10.5079 15.454C10.2799 15.682 9.97073 15.8101 9.6483 15.8101ZM16.9499 15.8101H15.2785C14.9561 15.8101 14.6469 15.682 14.4189 15.454C14.1909 15.226 14.0628 14.9168 14.0628 14.5944C14.0628 14.2719 14.1909 13.9627 14.4189 13.7347C14.6469 13.5067 14.9561 13.3787 15.2785 13.3787H16.9499C17.2724 13.3787 17.5816 13.5067 17.8096 13.7347C18.0376 13.9627 18.1656 14.2719 18.1656 14.5944C18.1656 14.9168 18.0376 15.226 17.8096 15.454C17.5816 15.682 17.2724 15.8101 16.9499 15.8101ZM24.2456 15.8101H22.5728C22.2503 15.8101 21.9411 15.682 21.7131 15.454C21.4851 15.226 21.357 14.9168 21.357 14.5944C21.357 14.2719 21.4851 13.9627 21.7131 13.7347C21.9411 13.5067 22.2503 13.3787 22.5728 13.3787H24.2456C24.5681 13.3787 24.8773 13.5067 25.1053 13.7347C25.3333 13.9627 25.4613 14.2719 25.4613 14.5944C25.4613 14.9168 25.3333 15.226 25.1053 15.454C24.8773 15.682 24.5681 15.8101 24.2456 15.8101Z" fill="black"></path></svg>